<?xml version="1.0" encoding="UTF-8"?>
<svg id="uuid-6af87408-06b1-4ea8-a7e5-d3a6b38b1f0d" data-name="OBJECTS" xmlns="http://www.w3.org/2000/svg" viewBox="0 0 1658.37 792.85">
  <defs>
    <style>
      .uuid-584ae09a-fcfc-42e7-985e-b564390d063a {
        fill: #2ABDFF;
      }

      .uuid-dbd24998-0fca-4392-ace3-794b7d2eb485 {
        fill: #FF37C7;
      }
    </style>
  </defs>
  <path class="uuid-584ae09a-fcfc-42e7-985e-b564390d063a" d="M1587.73,525.56l-193.6,65.1-32.55-96.8c-17.98-53.46,10.79-111.37,64.25-129.35h0c53.46-17.98,111.37,10.79,129.35,64.25l32.55,96.8Z"/>
  <path class="uuid-584ae09a-fcfc-42e7-985e-b564390d063a" d="M163.46,708.8L0,586.33l61.24-81.73c33.82-45.14,97.83-54.32,142.97-20.5h0c45.14,33.82,54.32,97.83,20.5,142.97l-61.24,81.73Z"/>
  <path style="fill: #00C3A0;" d="M687.85,124.53c30.12,66.98.14,145.98-66.84,176.1-66.98,30.12-145.98.14-176.1-66.84l51.07-22.97c17.46,38.82,63.24,56.2,102.06,38.74,38.82-17.46,56.2-63.24,38.74-102.06l51.07-22.97Z"/>
  <path style="fill: #9E62FF;" d="M850.97,792.85c-32.9-65.66-6.26-145.85,59.4-178.75,65.66-32.9,145.85-6.26,178.75,59.4l-50.06,25.09c-19.07-38.05-65.54-53.5-103.6-34.43-38.05,19.07-53.5,65.54-34.43,103.59l-50.06,25.09Z"/>
  <path class="uuid-dbd24998-0fca-4392-ace3-794b7d2eb485" d="M1238.75,502.48h-35.35l32.95,12.81-1.81,4.66-34.29-13.33,26.02,26.02-3.54,3.54-25-25,14.24,32.36-4.58,2.01-14.82-33.68v36.79h-5v-35.35l-12.81,32.95-4.66-1.81,13.33-34.29-26.02,26.02-3.54-3.54,25-25-32.36,14.24-2.01-4.58,33.68-14.82h-36.79v-5h35.35l-32.95-12.81,1.81-4.66,34.29,13.33-26.02-26.02,3.54-3.54,25,25-14.24-32.36,4.58-2.01,14.82,33.68v-36.8h5v35.35l12.81-32.95,4.66,1.81-13.33,34.29,26.02-26.02,3.54,3.54-25,25,32.36-14.24,2.01,4.58-33.68,14.82h36.8v5Z"/>
  <polygon style="fill: #00C3A0;" points="323.37 351.37 337.85 315.67 337.57 354.19 364.61 326.76 349.61 362.24 385.1 347.24 357.66 374.28 396.18 374.01 360.49 388.49 396.18 402.97 357.66 402.7 385.1 429.74 349.61 414.74 364.61 450.22 337.57 422.79 337.85 461.31 323.37 425.61 308.88 461.31 309.16 422.79 282.12 450.22 297.12 414.74 261.64 429.74 289.07 402.7 250.55 402.97 286.24 388.49 250.55 374.01 289.07 374.28 261.64 347.24 297.12 362.24 282.12 326.76 309.16 354.19 308.88 315.67 323.37 351.37"/>
  <polygon style="fill: #9E62FF;" points="1226.17 35.69 1240.66 0 1240.38 38.52 1267.42 11.09 1252.42 46.57 1287.91 31.57 1260.47 58.61 1298.99 58.33 1263.3 72.82 1298.99 87.3 1260.47 87.02 1287.91 114.06 1252.42 99.07 1267.42 134.55 1240.38 107.11 1240.66 145.63 1226.17 109.94 1211.69 145.63 1211.97 107.11 1184.93 134.55 1199.93 99.07 1164.44 114.06 1191.88 87.02 1153.36 87.3 1189.05 72.82 1153.36 58.33 1191.88 58.61 1164.44 31.57 1199.93 46.57 1184.93 11.09 1211.97 38.52 1211.69 0 1226.17 35.69"/>
  <circle class="uuid-dbd24998-0fca-4392-ace3-794b7d2eb485" cx="1493.37" cy="365.36" r="49.36"/>
  <circle style="fill: #2ABDFF;" cx="412.56" cy="72.82" r="54.77"/>
</svg>