<svg width="363" height="342" viewBox="0 0 363 342" fill="none" xmlns="http://www.w3.org/2000/svg">
<path d="M342.53 238.092C328.056 259.56 298.51 287.389 262.869 295.158C262.254 295.29 261.59 295.428 260.882 295.572C254.197 296.961 244.089 299.068 234.821 306.937C234.753 307 225.749 314.833 221.396 325.657C220.456 327.996 219.748 330.454 219.276 333C219.276 333 215.5 341.5 208.5 341C201.5 340.5 200.417 336 200.208 333C200 330 202.103 323.199 203.951 318.604C210.084 303.353 222.148 292.987 222.655 292.554C235.578 281.571 249.556 278.667 257.068 277.108C257.708 276.976 258.316 276.85 258.875 276.725C287.142 270.564 313.43 247.576 326.941 227.528C342.698 204.15 347.784 180.355 341.651 158.724C339.431 150.892 330.283 124.646 305.859 115.744C284.557 107.987 263.482 118.195 252.81 124.972C241.919 131.894 234.394 142.133 226.423 152.977C219.645 162.198 212.633 171.736 203.158 179.707C194.774 186.76 185.733 189.369 177.705 187.05C155.691 180.701 153.501 154.921 152.197 139.519C152.121 138.62 152.045 137.753 151.972 136.917C150.524 120.775 148.925 104.418 147.219 88.3047L147.119 87.3546C146.923 85.5006 146.591 82.3384 146.127 79.4466C136.935 90.7678 130.138 103.763 122.958 117.491C122.267 118.811 121.578 120.132 120.887 121.445C120.267 122.634 114.586 133.331 107.425 143.196C97.3417 157.082 89.1457 162.766 80.8373 161.633C75.847 160.948 69.338 157.54 66.6597 145.176C63.393 130.096 62.1454 114.813 60.9417 100.028C59.6746 84.4823 58.4832 69.7967 55.1359 55.3206C54.8673 54.1268 54.5646 52.7235 54.2277 51.1522C52.8726 44.8228 51.0171 36.1474 48.0703 28.9167C45.4359 22.4801 42.865 19.5932 41.2854 18.9598C40.4333 19.4373 37.6867 21.4496 32.8818 29.3187C28.4676 36.547 23.8142 46.1481 18.8922 56.3194C13.0424 68.4153 6.88497 81.1178 0 92.2027V52.1535C0.664082 50.777 1.32328 49.42 1.96783 48.0874C7.81761 36.0061 13.3427 24.5948 18.9678 16.1216C22.259 11.1614 31.0068 -2.01376 44.1004 0.261684C63.3002 3.60663 69.1329 30.8949 72.6193 47.2079C72.9318 48.6599 73.2077 49.9609 73.4665 51.0669C77.1214 66.8903 78.4325 82.9572 79.6923 98.4979C80.891 113.157 82.0117 127.012 84.9415 140.723C86.8971 138.874 89.8268 135.611 93.782 129.899C99.456 121.708 103.77 113.566 104.249 112.662C104.932 111.361 105.616 110.048 106.3 108.74C113.849 94.3076 121.649 79.3881 132.592 66.2641C135.107 63.2529 142.751 54.0878 152.531 57.0747C163.198 60.3319 164.653 74.2233 165.825 85.3885L165.925 86.3241C167.644 102.53 169.248 118.987 170.711 135.231C170.786 136.099 170.862 136.998 170.943 137.921C172.21 152.806 174.072 166.386 182.906 168.932C184.625 169.429 187.828 167.989 191.07 165.268C198.827 158.744 204.872 150.514 211.281 141.802C219.928 130.035 228.869 117.864 242.746 109.049C266.199 94.1517 290.897 90.2342 312.287 98.0229C326.704 103.278 338.679 113.154 347.891 127.375C354.739 137.943 358.255 148.326 359.742 153.576C365.116 172.511 366.49 202.547 342.53 238.097V238.092Z" fill="url(#paint0_linear_98_77)"/>
<defs>
<linearGradient id="paint0_linear_98_77" x1="-8.35202e-06" y1="45" x2="234" y2="333" gradientUnits="userSpaceOnUse">
<stop stop-color="#F7F1FD"/>
<stop offset="1" stop-color="#FF37C7"/>
</linearGradient>
</defs>
</svg>
