<svg width="344" height="359" viewBox="0 0 344 359" fill="none" xmlns="http://www.w3.org/2000/svg">
<path d="M302.196 331.217L301.824 331.314C287.835 334.999 239.673 344.482 207.292 311.639C196.985 301.174 189.537 287.948 185.273 273.849C185.31 273.834 185.353 273.82 185.39 273.812C203.409 268.319 221.463 257.612 234.94 244.443C251.023 228.727 259.719 210.823 260.077 192.676C260.179 187.49 259.784 161.201 241.796 152.564C230.758 147.27 216.258 150.346 200.97 161.207C188.741 169.896 177.149 182.863 169.949 195.901C160.568 212.9 156.463 233.611 158.129 254.988C133.583 256.471 108.696 247.967 90.8671 231.18C64.2715 206.129 63.0948 171.629 62.5916 156.898C62.4466 152.609 62.5176 148.314 62.8019 144.04C91.3844 137.306 118.426 127.598 143.657 114.981C183.417 95.1015 202.414 76.5452 207.181 52.9115C208.526 46.2431 211.752 23.412 196.945 9.46629C186.206 -0.645776 169.713 -2.66648 147.921 3.45256C133.7 7.44843 121.508 13.6984 118.111 15.5256C95.0401 27.9003 74.5249 48.4858 60.3403 73.4913C51.2069 89.583 44.9276 106.839 41.7012 124.516C31.4649 126.477 21.041 128.042 10.4182 129.214C4.44583 129.869 0 134.944 0 140.883C0 141.199 0.00849454 141.529 0.0369207 141.854C0.585546 148.448 6.42427 153.295 12.9595 152.575C21.8313 151.59 30.5752 150.358 39.1911 148.858C39.1258 151.804 39.14 154.755 39.2423 157.706C39.7909 173.827 41.2492 216.648 74.9001 248.337C98.0276 270.117 130.51 280.856 162.225 278.226C167.527 297.292 177.368 314.658 190.706 328.186C209.214 346.956 234.351 357.568 263.4 358.861C265.27 358.94 267.334 359 269.577 359C279.52 359 292.881 357.964 307.753 354.042L308.066 353.962C334.883 346.955 359.202 330.477 378 306.846V261.961C362.516 296.469 335.48 322.525 302.196 331.22V331.217ZM129.109 36.2534C142.805 28.9021 159.121 23.5259 170.264 23.5259C174.943 23.5259 178.704 24.4736 180.981 26.6167C185.705 31.0679 185.543 41.9883 184.287 48.2382C182.178 58.689 174.469 73.332 133.262 93.9375C112.448 104.343 90.2816 112.642 66.9494 118.789C76.1339 83.7372 98.9402 52.439 129.109 36.2534ZM190.376 207.313C195.953 197.215 204.947 187.155 214.447 180.407C221.792 175.184 227.31 173.502 230.15 173.502C230.843 173.502 231.375 173.605 231.733 173.781C234.405 175.059 236.881 184.186 236.719 192.206C236.421 207.151 226.733 219.694 218.657 227.589C208.415 237.607 194.879 245.852 181.174 250.494C180.393 235.19 183.343 220.052 190.373 207.313H190.376Z" fill="url(#paint0_linear_98_75)"/>
<defs>
<linearGradient id="paint0_linear_98_75" x1="-2.34554e-06" y1="141" x2="322" y2="341" gradientUnits="userSpaceOnUse">
<stop stop-color="#00C3A0"/>
<stop offset="1" stop-color="#EEF9F6"/>
</linearGradient>
</defs>
</svg>
