<svg width="495" height="305" viewBox="0 0 495 305" fill="none" xmlns="http://www.w3.org/2000/svg">
<g clip-path="url(#clip0_102_121)">
<path d="M277.071 -34.6727C307.741 -52.407 344.572 -54.1475 377.737 -42.5431C410.08 -31.2271 436.231 -5.68923 447.216 26.9327C457.871 58.5722 455.137 95.0557 439.29 124.473C431.182 139.524 419.84 152.656 405.811 162.452C391.65 172.342 375.437 178.494 358.529 181.625C325.872 187.674 290.364 179.927 264.089 159.276C247.768 146.449 233.814 127.218 233.688 105.677C233.628 95.4921 236.117 85.6108 241.652 77.0356C247.026 68.7084 255.39 62.2152 264.997 59.5494C284.001 54.2746 304.293 61.1612 319.289 73.247C332.443 83.8472 341.805 99.5403 346.348 115.706C355.292 147.525 348.537 184.871 324.834 208.766C293.997 239.852 248.621 244.184 207.292 248.047C198.294 248.889 189.311 249.785 180.382 251.187C178.307 251.512 176.237 251.863 174.169 252.238C173.134 252.426 172.101 252.62 171.069 252.82C170.449 252.941 169.832 253.067 169.211 253.19C166.945 253.64 171.714 252.642 169.459 253.141C165.159 254.092 160.881 255.114 156.645 256.32C148.142 258.741 139.883 261.834 131.939 265.715C131.309 266.022 130.336 266.736 132.799 265.272C132.285 265.578 131.731 265.83 131.206 266.115C130.327 266.591 129.457 267.076 128.591 267.575C126.703 268.665 124.848 269.814 123.035 271.027C119.583 273.338 116.519 276.022 113.275 278.592C115.935 276.485 113.259 278.642 112.698 279.195C112.002 279.88 111.317 280.579 110.647 281.291C109.302 282.72 108.014 284.2 106.787 285.732C105.545 287.279 104.408 288.892 103.267 290.514C102.006 292.306 104.54 288.422 103.397 290.298C103.135 290.729 102.868 291.152 102.612 291.585C102.038 292.542 101.494 293.514 100.963 294.494C98.3818 299.258 92.267 302.086 87.1581 299.357C82.4128 296.824 79.5263 290.611 82.2837 285.521C90.6901 270 103.655 257.621 119.106 249.22C135.32 240.404 152.787 235.307 170.852 231.888C188.652 228.517 206.729 227.445 224.714 225.499C234.524 224.438 244.32 223.153 254.004 221.249C254.589 221.134 255.208 221.061 255.78 220.893C253.213 221.648 254.836 221.088 255.535 220.935C256.592 220.705 257.645 220.468 258.697 220.221C261.253 219.622 263.798 218.97 266.324 218.259C270.861 216.979 275.346 215.503 279.733 213.781C281.904 212.929 284.052 212.017 286.168 211.038C286.559 210.858 289.339 209.691 289.31 209.525C289.309 209.523 286.9 210.803 288.696 209.835C289.41 209.449 290.127 209.069 290.837 208.675C295.001 206.355 299.001 203.738 302.766 200.815C303.692 200.095 304.605 199.357 305.501 198.601C305.861 198.298 306.219 197.991 306.575 197.681C306.72 197.553 308.404 195.943 307.169 197.165C305.926 198.394 307.609 196.734 307.739 196.607C308.041 196.316 308.341 196.023 308.64 195.728C309.409 194.964 310.16 194.183 310.896 193.386C313.329 190.743 315.562 187.917 317.589 184.949C317.891 184.505 318.175 184.047 318.482 183.607C316.818 185.984 317.566 185.046 317.911 184.474C318.375 183.707 318.845 182.946 319.291 182.168C320.274 180.461 321.193 178.715 322.046 176.939C322.784 175.403 323.473 173.844 324.116 172.265C324.42 171.516 324.714 170.764 324.996 170.007C325.292 169.214 326.366 165.56 325.408 168.961C327.415 161.824 328.844 154.883 329.508 147.483C329.63 146.114 329.387 150.258 329.455 148.272C329.47 147.82 329.493 147.367 329.508 146.916C329.533 146.103 329.547 145.288 329.551 144.474C329.561 142.485 329.505 140.495 329.385 138.509C329.165 134.904 328.73 131.311 328.081 127.757C327.985 127.232 327.915 126.678 327.774 126.164C327.787 126.213 328.392 128.947 328.005 127.301C327.8 126.423 327.603 125.546 327.38 124.672C326.916 122.842 326.389 121.027 325.804 119.23C324.663 115.73 323.295 112.306 321.695 108.992C321.54 108.672 321.365 108.351 321.221 108.025C322.591 111.121 321.875 109.298 321.498 108.591C321.118 107.879 320.727 107.172 320.326 106.474C319.388 104.84 318.389 103.24 317.332 101.679C316.324 100.189 315.26 98.7371 314.146 97.3248C313.586 96.6161 313.014 95.9184 312.43 95.231C312.195 94.9565 311.956 94.6858 311.72 94.4094C310.432 92.8964 313.358 96.1246 312.07 94.7879C309.127 91.732 305.978 88.9374 302.5 86.5014C302.165 86.2685 301.829 86.0406 301.493 85.8102C299.731 84.6043 303.149 86.8212 301.92 86.0892C301.043 85.5689 300.177 85.032 299.286 84.5336C297.422 83.4936 295.506 82.5464 293.545 81.7065C292.617 81.3081 291.68 80.9347 290.732 80.5862C290.405 80.4672 289.912 80.3561 289.596 80.1805C291.864 81.4333 290.748 80.5548 289.824 80.2808C287.929 79.7175 286.001 79.2569 284.054 78.9157C283.094 78.7481 282.13 78.6072 281.16 78.4981C280.601 78.4356 279.976 78.4559 279.427 78.3368C279.567 78.3662 282.05 78.4183 280.38 78.4094C278.284 78.3972 276.213 78.4253 274.129 78.6895C273.583 78.7586 270.762 79.2802 272.711 78.8743C274.66 78.4684 271.875 79.1136 271.346 79.27C270.449 79.5351 269.561 79.8394 268.689 80.1808C268.163 80.3872 267.644 80.6062 267.131 80.8403C266.337 81.2007 264.948 82.2918 267.572 80.5889C265.937 81.6498 264.285 82.5785 262.762 83.8189C262.46 84.0635 262.174 84.3427 261.866 84.5766C264.065 82.9048 262.936 83.5916 262.363 84.1678C261.61 84.922 260.898 85.7129 260.224 86.5393C259.614 87.288 259.101 88.115 258.494 88.8624C260.502 86.3902 258.554 88.8157 258.123 89.6097C257.147 91.4144 256.373 93.29 255.663 95.2115C255.177 96.5244 256.412 92.647 255.868 94.6502C255.766 95.0285 255.655 95.4057 255.555 95.7853C255.308 96.7379 255.094 97.6976 254.915 98.6644C254.735 99.6356 254.589 100.612 254.474 101.592C254.416 102.085 254.382 102.577 254.33 103.068C254.268 103.861 254.288 103.461 254.394 101.865C254.374 102.261 254.361 102.657 254.352 103.053C254.313 104.936 254.391 106.818 254.588 108.69C254.692 109.672 254.827 110.651 254.996 111.625C255.134 112.42 255.628 113.811 254.83 110.931C254.999 111.537 255.121 112.159 255.282 112.768C255.891 115.052 256.668 117.291 257.587 119.468C257.859 120.114 258.514 122.428 259.065 122.681C259.022 122.662 257.767 120.323 258.783 122.085C259.197 122.802 259.59 123.527 260.017 124.238C261.175 126.171 262.44 128.038 263.79 129.842C264.504 130.796 265.242 131.731 266.002 132.647C266.383 133.107 266.77 133.561 267.161 134.01C268.934 136.05 266.035 132.897 267.519 134.411C270.799 137.755 274.198 140.923 277.9 143.796C279.364 144.933 280.86 146.026 282.386 147.074C283.109 147.573 285.885 149.118 282.934 147.468C283.737 147.917 284.498 148.45 285.288 148.923C288.608 150.908 292.043 152.698 295.567 154.289C297.077 154.969 298.603 155.613 300.143 156.221C300.998 156.56 301.86 156.886 302.724 157.2C303.488 157.479 307.232 158.633 303.865 157.623C307.404 158.683 310.927 159.711 314.542 160.489C318.245 161.285 321.987 161.891 325.748 162.312C327.494 162.506 329.247 162.605 330.997 162.778C327.508 162.436 330.801 162.751 331.643 162.782C332.752 162.823 333.862 162.848 334.973 162.857C342.467 162.915 349.967 162.252 357.333 160.869C357.787 160.784 358.239 160.677 358.694 160.607C355.685 161.088 356.91 160.988 357.605 160.833C358.506 160.632 359.409 160.433 360.307 160.217C362.28 159.743 364.243 159.213 366.187 158.632C369.719 157.577 373.197 156.345 376.606 154.942C378.307 154.241 379.992 153.497 381.654 152.709C382.481 152.318 383.331 151.942 384.13 151.495C384.07 151.528 381.635 152.807 383.128 151.998C383.613 151.736 384.102 151.481 384.586 151.217C387.974 149.364 391.258 147.321 394.412 145.091C397.429 142.959 400.291 140.643 403.067 138.206C404.318 137.109 402.38 138.822 402.314 138.895C402.69 138.492 403.13 138.133 403.528 137.75C404.198 137.106 404.86 136.454 405.511 135.791C406.812 134.467 408.073 133.104 409.295 131.707C411.79 128.852 414.116 125.849 416.263 122.724C416.54 122.32 418.273 119.705 417.231 121.301C416.208 122.865 417.71 120.511 417.982 120.065C419.035 118.327 420.037 116.56 420.985 114.763C422.712 111.493 424.267 108.134 425.65 104.702C426.344 102.984 426.99 101.249 427.596 99.4982C427.715 99.15 427.824 98.7906 427.954 98.4448C426.836 101.401 427.597 99.5274 427.809 98.8467C428.113 97.8722 428.405 96.8953 428.683 95.913C430.733 88.6698 432.062 81.2234 432.67 73.7183C432.708 73.2542 432.738 72.7908 432.774 72.3273C432.883 70.9387 432.635 75.0829 432.731 73.061C432.775 72.1314 432.817 71.2024 432.843 70.2723C432.895 68.4129 432.905 66.551 432.869 64.6905C432.793 60.7882 432.522 56.8884 432.05 53.0128C431.836 51.2617 431.584 49.5157 431.29 47.778C431.15 46.9553 431.003 46.1334 430.845 45.3129C430.701 44.5644 430.165 42.5567 430.971 45.8555C430.838 45.3155 430.735 44.7693 430.611 44.226C429.785 40.6156 428.778 37.0474 427.587 33.5418C426.368 29.953 424.956 26.4275 423.351 22.9934C422.961 22.1551 422.55 21.326 422.143 20.4957C421.518 19.223 423.482 23.0496 422.521 21.2447C422.347 20.9191 422.174 20.5909 422 20.2653C421.031 18.472 420.009 16.708 418.93 14.9787C416.955 11.8093 414.797 8.75507 412.465 5.83879C411.281 4.35905 410.01 2.95938 408.79 1.51384C411.015 4.15096 408.85 1.61368 408.278 1.01996C407.558 0.274592 406.824 -0.457895 406.082 -1.18072C403.313 -3.86858 400.386 -6.39471 397.329 -8.74941C395.911 -9.84043 394.467 -10.8942 392.997 -11.9096C392.591 -12.1896 389.949 -13.9378 391.527 -12.916C393.088 -11.9053 391.473 -12.9437 391.211 -13.1068C390.733 -13.4059 390.251 -13.7018 389.768 -13.9951C383.146 -18.0025 376.095 -21.2934 368.794 -23.8478C368.438 -23.9732 368.077 -24.0885 367.723 -24.2165C370.472 -23.2163 369.037 -23.7845 368.351 -24.0042C367.45 -24.2926 366.546 -24.5695 365.638 -24.8344C363.731 -25.3936 361.81 -25.9032 359.878 -26.3644C356.196 -27.2422 352.471 -27.9393 348.723 -28.454C346.848 -28.7119 344.969 -28.9216 343.085 -29.0894C342.35 -29.1535 338.841 -29.329 342.371 -29.1716C341.24 -29.2216 340.108 -29.2862 338.974 -29.3185C335.203 -29.425 331.424 -29.3463 327.662 -29.0732C323.907 -28.8008 320.167 -28.3379 316.459 -27.6801C315.616 -27.53 312.319 -26.7616 315.855 -27.5992C314.941 -27.3833 314.019 -27.199 313.105 -26.9812C311.186 -26.5219 309.281 -26.0083 307.392 -25.4404C303.881 -24.3844 300.428 -23.1379 297.054 -21.7006C295.318 -20.9614 293.616 -20.1556 291.92 -19.3328C291.284 -19.0238 290.278 -18.3289 292.877 -19.8272C292.387 -19.544 291.871 -19.2984 291.374 -19.0297C290.541 -18.5792 289.717 -18.1124 288.898 -17.6387C284.225 -14.938 277.639 -15.2307 274.482 -20.242C271.694 -24.667 272.048 -31.7804 277.06 -34.6795L277.071 -34.6727Z" fill="url(#paint0_linear_102_121)"/>
</g>
<defs>
<linearGradient id="paint0_linear_102_121" x1="87" y1="293" x2="462" y2="26" gradientUnits="userSpaceOnUse">
<stop stop-color="#2ABDFF"/>
<stop offset="1" stop-color="#F2F7FC"/>
</linearGradient>
<clipPath id="clip0_102_121">
<rect width="433.107" height="257.829" fill="white" transform="matrix(-0.943181 0.332279 0.332279 0.943181 408.498 -83)"/>
</clipPath>
</defs>
</svg>
